<svg xmlns="http://www.w3.org/2000/svg" viewBox="0 0 1913 997.25"><defs><style>.cls-1,.cls-12,.cls-13{fill:none;}.cls-1,.cls-10,.cls-11,.cls-12,.cls-13,.cls-2,.cls-3,.cls-4{stroke:#000;stroke-miterlimit:10;}.cls-1{stroke-width:2px;}.cls-2{fill:#efa5c0;}.cls-3{fill:#a4e0b7;}.cls-4{fill:#b1aae8;}.cls-5{fill:#6f6fce;}.cls-6{fill:#c8d16f;}.cls-7{fill:#6fce84;}.cls-8{fill:#ce6faa;}.cls-9{fill:#ce846f;}.cls-10{fill:#969696;}.cls-11{fill:#b7b7b7;}.cls-13{stroke-width:0.25px;}</style></defs><g id="Capa_2" data-name="Capa 2"><g id="Capa_1-2" data-name="Capa 1"><path class="cls-1" d="M178.5,68.93V212.79a18.83,18.83,0,0,1-18.84,18.83H57.34A18.83,18.83,0,0,1,38.5,212.79V57.46A18.84,18.84,0,0,1,57.34,38.62h85.44"/><line class="cls-1" x1="142.5" y1="38.62" x2="142.5" y2="68.62"/><line class="cls-1" x1="178.5" y1="68.62" x2="142.5" y2="68.62"/><line class="cls-1" x1="142.5" y1="38.62" x2="178.5" y2="68.62"/><rect class="cls-2" x="51.5" y="51.62" width="82" height="11" rx="1.7"/><rect class="cls-3" x="51.5" y="76.62" width="94" height="11" rx="1.7"/><rect x="110.46" y="106.12" width="3.03" height="13" rx="1.51"/><rect x="110.38" y="106.23" width="3.03" height="13" rx="1.51" transform="translate(224.63 0.83) rotate(90)"/><rect x="93.85" y="106.27" width="3.03" height="13" rx="1.51" transform="translate(208.13 17.41) rotate(90)"/><rect x="76.34" y="106.32" width="3.03" height="13" rx="1.51" transform="translate(101.21 -22.25) rotate(44.42)"/><rect x="76.21" y="106.34" width="3.03" height="13" rx="1.51" transform="translate(212.72 136.3) rotate(134.42)"/><rect x="58.72" y="106.27" width="3.03" height="13" rx="1.51" transform="translate(96.14 -9.94) rotate(44.42)"/><circle cx="57.05" cy="109.93" r="2.05"/><circle cx="63.24" cy="115.78" r="2.05"/><rect x="134.14" y="109.02" width="3.03" height="13" rx="1.51" transform="translate(251.17 -20.14) rotate(90)"/><rect x="134.57" y="103.95" width="3.03" height="13" rx="1.51" transform="translate(246.54 -25.64) rotate(90)"/><rect x="72" y="150.12" width="6" height="6"/><rect x="86" y="150.12" width="6" height="6"/><rect x="99" y="150.12" width="6" height="6"/><path class="cls-4" d="M151,473.12l82,196c-35,32-118,52-182,2l100-198"/><rect class="cls-5" x="1599" y="760.12" width="35" height="113"/><rect class="cls-6" x="1653" y="690.12" width="35" height="183"/><rect class="cls-7" x="1709" y="707.12" width="35" height="166"/><rect class="cls-8" x="1761" y="772.12" width="35" height="101"/><rect class="cls-9" x="1812" y="725.12" width="35" height="148"/><line class="cls-1" x1="1580" y1="873.12" x2="1580" y2="674.12"/><line class="cls-1" x1="1580.04" y1="873.04" x2="1878" y2="873.04"/><path d="M1576.38,682.07a1.93,1.93,0,0,1,0-.24c0-.17,0-.15,0,0a2,2,0,0,1,.07-.23c.06-.15,0-.15,0,0a1.56,1.56,0,0,1,.25-.43c.08-.14.18-.27.28-.41.41-.57.84-1.13,1.27-1.69l2.68-3.58a1.51,1.51,0,0,0-.54-2.05,1.53,1.53,0,0,0-2,.54l-2.86,3.8c-.92,1.23-2.18,2.56-2.06,4.21a1.5,1.5,0,1,0,3,0Z"/><path d="M1579,675.23l.73.84.33.41c.14.18-.13-.18,0,0l.16.21a21.2,21.2,0,0,1,1.23,1.85c.36.62.7,1.25,1,1.91l.21.47c.06.13.06.14,0,0a2.44,2.44,0,0,0,.1.24c.14.36.28.73.41,1.1a1.5,1.5,0,1,0,2.89-.8,24.11,24.11,0,0,0-5-8.37,1.51,1.51,0,0,0-2.12,0,1.53,1.53,0,0,0,0,2.12Z"/><path d="M1873.83,879.53c1.07-.61,2.17-1.18,3.2-1.85a6,6,0,0,0,2.61-3.1,1.53,1.53,0,0,0-1.05-1.85,1.54,1.54,0,0,0-1.85,1c0,.05,0,.11,0,.16.08-.34.1-.23,0-.1a2.54,2.54,0,0,1-.16.28l-.12.17c-.11.18.09-.08.09-.1s-.19.21-.25.27l-.26.26-.14.11c-.15.13,0,0,.09-.06-.24.14-.46.32-.7.46-1,.6-2,1.14-3,1.71a1.5,1.5,0,0,0-.54,2,1.53,1.53,0,0,0,2,.54Z"/><path d="M1880.13,873.21a7.21,7.21,0,0,0-1.89-3.44c-.51-.45-1.08-.84-1.63-1.24l-1.61-1.17a1.5,1.5,0,0,0-2.2,1.69,1.72,1.72,0,0,0,.69.9l2.32,1.69.14.11-.1-.08.2.17.26.23a1.94,1.94,0,0,0,.23.26l-.08-.11,0,.07.18.28c.11.2.2.4.29.6l-.15-.36c.16.39.29.79.41,1.19a1.53,1.53,0,0,0,1.85,1,1.51,1.51,0,0,0,1-1.84Z"/><rect class="cls-10" x="1579.5" y="122.62" width="16" height="183"/><rect class="cls-10" x="1775.5" y="122.62" width="17" height="183"/><rect class="cls-11" x="1595.5" y="281.62" width="180" height="24"/><rect class="cls-12" x="1595.5" y="234.63" width="180" height="5"/><rect class="cls-12" x="1595.5" y="196.62" width="180" height="5"/><rect class="cls-12" x="1595.5" y="155.62" width="180" height="5"/><circle class="cls-4" cx="1627" cy="158.12" r="8.5"/><circle class="cls-4" cx="1742" cy="158.12" r="8.5"/><circle class="cls-4" cx="1761" cy="158.12" r="8.5"/><circle class="cls-2" cx="1605" cy="199.12" r="8.5"/><circle class="cls-2" cx="1623" cy="199.12" r="8.5"/><circle class="cls-2" cx="1640" cy="199.12" r="8.5"/><circle class="cls-2" cx="1657" cy="199.12" r="8.5"/><circle class="cls-3" cx="1766" cy="237.12" r="8.5"/><circle class="cls-3" cx="1673" cy="237.12" r="8.5"/><circle class="cls-3" cx="1654" cy="237.12" r="8.5"/><circle class="cls-3" cx="1605" cy="237.12" r="8.5"/><line class="cls-1" x1="118.88" y1="966.55" x2="416.84" y2="966.55"/><path d="M412.67,973c1.07-.61,2.17-1.19,3.2-1.86a5.92,5.92,0,0,0,2.6-3.09,1.51,1.51,0,0,0-1.05-1.85,1.54,1.54,0,0,0-1.84,1,.75.75,0,0,0-.05.16c.07-.35.1-.23,0-.1a1.56,1.56,0,0,1-.16.28,1,1,0,0,1-.11.17c-.12.18.08-.08.09-.11s-.19.22-.25.28a3.38,3.38,0,0,1-.27.26l-.13.11c-.15.13,0,0,.08-.06-.23.14-.45.32-.69.46-1,.6-2,1.14-3,1.71a1.52,1.52,0,0,0-.54,2,1.54,1.54,0,0,0,2.06.54Z"/><path d="M419,966.72a7.39,7.39,0,0,0-1.89-3.44c-.51-.45-1.09-.84-1.64-1.25l-1.6-1.16a1.47,1.47,0,0,0-1.16-.15,1.49,1.49,0,0,0-.89.69,1.46,1.46,0,0,0-.15,1.15,1.63,1.63,0,0,0,.69.9l2.32,1.69.14.1c-.19-.14-.22-.17-.1-.07l.2.17.26.23a1.43,1.43,0,0,0,.23.26l-.08-.11.05.07.17.28a4.73,4.73,0,0,1,.29.6l-.15-.36c.16.39.29.79.42,1.19a1.5,1.5,0,0,0,2.89-.79Z"/><line class="cls-1" x1="119" y1="965.12" x2="119" y2="766.12"/><path d="M115.38,774.07a1.93,1.93,0,0,1,0-.24c0-.17,0-.15,0,0a2,2,0,0,1,.07-.23c.06-.15,0-.15,0,0a1.56,1.56,0,0,1,.25-.43c.08-.14.18-.27.28-.41.41-.57.84-1.13,1.27-1.69l2.68-3.58a1.51,1.51,0,0,0-.54-2.05,1.53,1.53,0,0,0-2,.54l-2.86,3.8c-.92,1.23-2.18,2.56-2.06,4.21a1.5,1.5,0,0,0,3,0Z"/><path d="M118,767.23l.73.84.33.41c.14.18-.13-.18,0,0l.16.21a21.2,21.2,0,0,1,1.23,1.85c.36.62.7,1.25,1,1.91l.21.47c.06.13.06.14,0,0a2.44,2.44,0,0,0,.1.24c.14.36.28.73.41,1.1a1.5,1.5,0,1,0,2.89-.8,24.11,24.11,0,0,0-5-8.37,1.51,1.51,0,0,0-2.12,0,1.53,1.53,0,0,0,0,2.12Z"/><path d="M119.73,889.23c12.36-12.2,30-17,46.9-17.53,20.48-.72,40.53,4.53,60.63,7.66,20.55,3.2,41.57,3.74,62-.84,17.73-4,34.7-11.92,48.43-23.91,7.32-6.39,13-14,18.79-21.75,5.52-7.42,11.65-14.87,20.08-19.08a29.13,29.13,0,0,1,6.14-2.24c1.88-.46,1.08-3.35-.8-2.89-19.36,4.73-27.8,25-40.45,38.23s-28.9,22.11-46.25,27c-20.22,5.74-41.64,6.1-62.36,3.25s-41.09-8.48-62.06-8.54c-17,0-34.78,3.67-48.42,14.32a54.63,54.63,0,0,0-4.72,4.16c-1.37,1.35.75,3.48,2.12,2.12Z"/><line class="cls-12" x1="159.5" y1="966.62" x2="159.5" y2="956.62"/><line class="cls-12" x1="159.5" y1="944.62" x2="159.5" y2="932.62"/><line class="cls-12" x1="159.5" y1="921.62" x2="159.5" y2="912.62"/><line class="cls-12" x1="159.5" y1="901.62" x2="159.5" y2="888.62"/><line class="cls-12" x1="159.5" y1="880.62" x2="159.5" y2="874.62"/><line class="cls-12" x1="199.5" y1="966.62" x2="199.5" y2="956.62"/><line class="cls-12" x1="199.5" y1="941.62" x2="199.5" y2="932.62"/><line class="cls-12" x1="199.5" y1="917.62" x2="199.5" y2="905.62"/><line class="cls-12" x1="199.5" y1="895.62" x2="199.5" y2="888.62"/><line class="cls-12" x1="199.5" y1="877.62" x2="199.5" y2="874.62"/><line class="cls-12" x1="241.5" y1="882.62" x2="241.5" y2="879.62"/><line class="cls-12" x1="284.5" y1="966.62" x2="284.5" y2="956.62"/><line class="cls-12" x1="284.5" y1="947.62" x2="284.5" y2="934.62"/><line class="cls-12" x1="284.5" y1="923.62" x2="284.5" y2="917.62"/><line class="cls-12" x1="284.5" y1="905.62" x2="284.5" y2="901.62"/><line class="cls-12" x1="286.5" y1="888.62" x2="286.5" y2="882.62"/><line class="cls-12" x1="331.5" y1="965.62" x2="331.5" y2="956.62"/><line class="cls-12" x1="331.5" y1="947.62" x2="331.5" y2="941.62"/><line class="cls-12" x1="331.5" y1="929.62" x2="331.5" y2="920.62"/><line class="cls-12" x1="331.5" y1="905.62" x2="331.5" y2="898.62"/><line class="cls-12" x1="331.5" y1="888.62" x2="331.5" y2="880.62"/><line class="cls-12" x1="331.5" y1="871.62" x2="331.5" y2="862.62"/><line class="cls-12" x1="373.5" y1="965.62" x2="373.5" y2="951.62"/><line class="cls-12" x1="373.5" y1="941.62" x2="373.5" y2="937.62"/><line class="cls-12" x1="373.5" y1="929.62" x2="373.5" y2="923.62"/><line class="cls-12" x1="373.5" y1="911.62" x2="373.5" y2="902.62"/><line class="cls-12" x1="373.5" y1="892.62" x2="373.5" y2="888.62"/><line class="cls-12" x1="373.5" y1="881.62" x2="373.5" y2="871.62"/><line class="cls-12" x1="373.5" y1="862.62" x2="373.5" y2="852.62"/><line class="cls-12" x1="373.5" y1="841.62" x2="373.5" y2="830.62"/><line class="cls-12" x1="373.5" y1="819.62" x2="373.5" y2="813.62"/><line class="cls-12" x1="241.5" y1="967.62" x2="241.5" y2="956.62"/><line class="cls-12" x1="241.5" y1="944.62" x2="241.5" y2="934.62"/><line class="cls-12" x1="241.5" y1="925.62" x2="241.5" y2="917.62"/><line class="cls-12" x1="241.5" y1="908.62" x2="241.5" y2="902.62"/><line class="cls-12" x1="241.5" y1="892.62" x2="241.5" y2="885.62"/><circle class="cls-12" cx="160" cy="220.12" r="4.5"/><path d="M51.77,672c2.06-3.55,6.62-4.85,10.26-6.07a85.52,85.52,0,0,1,12.89-3.21c.48-.08.28-.8-.2-.72a84.83,84.83,0,0,0-14.12,3.63c-3.51,1.24-7.5,2.59-9.48,6a.38.38,0,0,0,.65.38Z"/><path d="M91,658.58a83.54,83.54,0,0,1,25-2c.48,0,.48-.72,0-.75a84.88,84.88,0,0,0-25.17,2c-.47.11-.27.84.2.73Z"/><path d="M134.53,655.91a135.35,135.35,0,0,1,27.28,1.32c.47.07.67-.65.19-.72a135.75,135.75,0,0,0-27.47-1.35c-.48,0-.49.77,0,.75Z"/><path d="M179.92,657.64A73.89,73.89,0,0,1,203.65,660a.37.37,0,0,0,.2-.72,74.29,74.29,0,0,0-23.93-2.42c-.48,0-.49.78,0,.75Z"/><path d="M212,662.83a39.38,39.38,0,0,1,18.25,4.8c.42.23.8-.42.37-.65a40.14,40.14,0,0,0-18.62-4.9.38.38,0,0,0,0,.75Z"/><line class="cls-13" y1="0.13" x2="11" y2="0.13"/><line class="cls-13" x1="1902" y1="997.12" x2="1913" y2="997.12"/></g></g></svg>