<svg xmlns="http://www.w3.org/2000/svg" viewBox="0 0 396.06 474.23"><defs><style>.cls-1,.cls-3{fill:none;stroke:#000;stroke-miterlimit:10;}.cls-2{fill:#282828;}.cls-3{stroke-width:0.25px;}</style></defs><g id="Capa_2" data-name="Capa 2"><g id="Capa_1-2" data-name="Capa 1"><path d="M230.06,127.11v282h-136v-282h136m1-1h-138v284h138v-284Z"/><line class="cls-1" x1="92.56" y1="126.61" x2="157.56" y2="61.61"/><line class="cls-1" x1="228.75" y1="126.85" x2="293.75" y2="61.85"/><line class="cls-1" x1="228.75" y1="409.85" x2="293.75" y2="344.85"/><line class="cls-1" x1="293.56" y1="344.61" x2="293.56" y2="61.61"/><path class="cls-1" d="M165.51,288.43a11,11,0,1,1-11.33.26"/><line class="cls-1" x1="159.56" y1="293.61" x2="159.56" y2="283.61"/><rect class="cls-1" x="113.56" y="148.61" width="95" height="16" rx="5.35"/><rect class="cls-1" x="112.56" y="176.61" width="95" height="16" rx="5.35"/><circle class="cls-1" cx="159.56" cy="322.61" r="6"/><circle class="cls-1" cx="159.56" cy="339.61" r="6"/><ellipse class="cls-2" cx="245.06" cy="156.61" rx="6" ry="15.5"/><ellipse class="cls-2" cx="280.06" cy="322.61" rx="6" ry="15.5"/><ellipse class="cls-2" cx="261.06" cy="238.61" rx="6" ry="15.5"/><ellipse class="cls-2" cx="158.06" cy="105.11" rx="15" ry="9"/><ellipse class="cls-2" cx="222.06" cy="83.11" rx="15" ry="9"/><line class="cls-1" x1="157.56" y1="61.61" x2="292.56" y2="61.61"/><line class="cls-3" x1="396.06" y1="474.11" x2="396.06" y2="474.11"/><line class="cls-3" x1="0.06" y1="3.11" x2="5.06" y2="0.11"/></g></g></svg>